<svg xmlns="http://www.w3.org/2000/svg">
	<symbol id="proton" fill="#6D4AFF" viewBox="0 0 24 24">
		<path d="m15.24 8.998 3.656-3.073v15.81H2.482C1.11 21.735 0 20.609 0 19.223V6.944l7.58 6.38a2.186 2.186 0 0 0 2.871-.042l4.792-4.284h-.003zm-5.456 3.538 1.809-1.616a2.438 2.438 0 0 1-1.178-.533L.905 2.395A.552.552 0 0 0 0 2.826v2.811l8.226 6.923a1.186 1.186 0 0 0 1.558-.024zM23.871 2.463a.551.551 0 0 0-.776-.068l-3.199 2.688v16.653h1.623c1.371 0 2.481-1.127 2.481-2.513V2.824a.551.551 0 0 0-.129-.36z" />
	</symbol>

	<symbol id="telegram" fill="#26A5E4" viewBox="0 0 24 24">
		<path d="M11.944 0A12 12 0 0 0 0 12a12 12 0 0 0 12 12 12 12 0 0 0 12-12A12 12 0 0 0 12 0a12 12 0 0 0-.056 0zm4.962 7.224c.1-.002.321.023.465.14a.506.506 0 0 1 .171.325c.016.093.036.306.02.472-.18 1.898-.962 6.502-1.36 8.627-.168.9-.499 1.201-.82 1.23-.696.065-1.225-.46-1.9-.902-1.056-.693-1.653-1.124-2.678-1.8-1.185-.78-.417-1.21.258-1.91.177-.184 3.247-2.977 3.307-3.23.007-.032.014-.15-.056-.212s-.174-.041-.249-.024c-.106.024-1.793 1.14-5.061 3.345-.48.33-.913.49-1.302.48-.428-.008-1.252-.241-1.865-.44-.752-.245-1.349-.374-1.297-.789.027-.216.325-.437.893-.663 3.498-1.524 5.83-2.529 6.998-3.014 3.332-1.386 4.025-1.627 4.476-1.635z" />
	</symbol>

	<symbol id="linkedin" fill="#0A66C2" viewBox="0 0 24 24">
		<path d="M20.447 20.452h-3.554v-5.569c0-1.328-.027-3.037-1.852-3.037-1.853 0-2.136 1.445-2.136 2.939v5.667H9.351V9h3.414v1.561h.046c.477-.9 1.637-1.85 3.37-1.85 3.601 0 4.267 2.37 4.267 5.455v6.286zM5.337 7.433c-1.144 0-2.063-.926-2.063-2.065 0-1.138.92-2.063 2.063-2.063 1.14 0 2.064.925 2.064 2.063 0 1.139-.925 2.065-2.064 2.065zm1.782 13.019H3.555V9h3.564v11.452zM22.225 0H1.771C.792 0 0 .774 0 1.729v20.542C0 23.227.792 24 1.771 24h20.451C23.2 24 24 23.227 24 22.271V1.729C24 .774 23.2 0 22.222 0h.003z"/>
	</symbol>

	<symbol id="github" fill="#181717" viewBox="0 0 24 24">
		<path d="M12 .297c-6.63 0-12 5.373-12 12 0 5.303 3.438 9.8 8.205 11.385.6.113.82-.258.82-.577 0-.285-.01-1.04-.015-2.04-3.338.724-4.042-1.61-4.042-1.61C4.422 18.07 3.633 17.7 3.633 17.7c-1.087-.744.084-.729.084-.729 1.205.084 1.838 1.236 1.838 1.236 1.07 1.835 2.809 1.305 3.495.998.108-.776.417-1.305.76-1.605-2.665-.3-5.466-1.332-5.466-5.93 0-1.31.465-2.38 1.235-3.22-.135-.303-.54-1.523.105-3.176 0 0 1.005-.322 3.3 1.23.96-.267 1.98-.399 3-.405 1.02.006 2.04.138 3 .405 2.28-1.552 3.285-1.23 3.285-1.23.645 1.653.24 2.873.12 3.176.765.84 1.23 1.91 1.23 3.22 0 4.61-2.805 5.625-5.475 5.92.42.36.81 1.096.81 2.22 0 1.606-.015 2.896-.015 3.286 0 .315.21.69.825.57C20.565 22.092 24 17.592 24 12.297c0-6.627-5.373-12-12-12"/>
	</symbol>

	<symbol id="literary-note" viewBox="0 0 512 512">
		<path d="M0 30C0 13.4315 13.4315 0 30 0H482C498.569 0 512 13.4315 512 30V482C512 498.569 498.569 512 482 512H30C13.4315 512 0 498.569 0 482V30Z" fill="black"/>
		<path d="M66 357.458V62H135.977V357.458H66ZM66 450.761V380.784H135.977V450.761H66ZM159.302 450.761V380.784H244.83V450.761H159.302ZM371.58 450.761L219.408 62H294.939L376.023 269.71V62H446V450.761H371.58ZM220.519 450.761V128.645L290.496 306.919V450.761H220.519Z" fill="white"/>
	</symbol>

	<symbol id="hsh" viewBox="0 0 1400 1400">
		<rect width="1400" height="1400" rx="150" fill="#EDEDED"/>
		<path d="M278.759 65.456c-13.559 3.808-22.547 14.32-24.832 29.249-1.219 7.465 2.438 24.07 7.465 33.972 7.16 14.167 25.288 26.354 38.999 26.05l6.855-.153-8.836-2.132c-11.577-2.742-16.148-5.332-22.698-12.492-10.207-11.273-16.148-35.343-11.883-48.444 6.094-19.043 22.089-25.593 40.37-16.757 19.804 9.75 32.601 35.799 30.773 62.611-1.981 26.964-15.844 53.928-42.198 82.263-16.91 18.434-24.375 36.41-24.375 59.26v12.188l-5.484-5.332c-7.617-7.16-23.308-26.964-34.276-42.96-10.969-15.843-18.738-32.144-21.937-45.55-2.895-12.339-2.895-31.686-.152-38.541 3.808-8.836 14.624-12.34 23.765-7.617 5.636 2.894 7.617 6.55 7.617 14.015 0 10.968-8.379 17.671-16.605 13.406-2.438-1.219-5.18-4.266-5.942-6.703-1.371-3.809-1.066-5.18 1.371-8.531 3.809-4.57 7.922-4.875 12.035-.762 1.676 1.676 3.047 2.437 3.047 1.828 0-2.437-5.637-6.398-8.988-6.398-12.34 0-15.386 14.168-4.875 23.46 12.644 11.273 30.62-8.835 22.242-24.831-4.114-8.074-10.816-12.34-19.347-12.34-6.551 0-8.227.61-12.645 5.028-14.32 14.319-13.101 49.51 3.199 92.47 10.512 27.421 38.847 82.415 54.233 104.809 4.113 5.941 4.266 6.703 2.133 9.75-3.808 5.332-3.199 8.074.914 5.179 6.551-4.722 14.015-1.218 10.207 4.875-1.371 2.285-1.219 4.723 1.523 12.187 3.047 8.989 4.418 24.68 2.133 24.68-.609 0-3.504-2.438-6.551-5.332-6.398-6.246-8.683-6.551-26.05-3.047-23.003 4.418-31.382 12.187-29.554 27.269 1.219 9.597 3.809 14.624 10.512 19.804 4.418 3.199 5.484 5.179 5.484 9.14 0 14.625-21.784 23.46-36.409 14.472-6.246-3.808-5.637-4.874 1.676-2.894 6.398 1.828 13.406-.152 13.406-3.809 0-1.828-2.438-2.285-14.32-2.285-13.559 0-14.32.153-13.559 3.047 1.981 7.465 15.691 16.148 31.992 20.414 12.949 3.351 21.175 3.046 35.495-1.524 10.816-3.351 12.949-3.656 17.519-1.98 6.551 2.437 8.836.609 3.808-3.199-3.351-2.438-3.503-3.047-1.218-3.809 5.484-2.133 8.074-.304 8.531 6.398l.457 6.399-5.027-.914c-5.332-.762-10.817 2.742-7.313 4.875.762.457 1.524 1.675 1.524 2.589 0 1.067-.914.914-2.285-.304-1.829-1.524-2.286-1.524-2.286.152 0 3.199 2.286 5.941 6.246 8.074 3.199 1.523 3.657 2.742 3.199 8.379-.457 5.027.305 7.921 3.352 12.491 3.808 5.485 3.961 7.008 3.961 25.289 0 10.816-.61 20.261-1.219 21.175-.609.914-5.484 2.742-10.968 3.809-7.16 1.523-10.055 2.894-10.359 4.874-.457 2.285 1.218 2.59 18.28 2.59h18.738l-11.425 6.246c-15.539 8.531-24.375 15.234-33.515 25.441-15.082 16.909-21.632 37.171-18.281 56.67 4.57 26.355 24.984 44.635 70.076 62.459 45.093 17.976 60.631 31.839 62.155 55.756.609 9.903.152 12.188-3.352 19.5-9.749 19.956-33.971 30.925-65.658 29.554-12.644-.61-16.605-1.371-23.156-4.723-9.749-5.027-12.339-8.531-27.116-35.8-6.398-11.882-12.492-21.632-13.711-21.632-5.027 0-5.179 3.656-1.828 34.277 1.981 16.757 3.961 31.229 4.571 32.296 1.371 2.285 12.187 4.57 28.03 5.941 7.008.457 13.254 1.828 14.168 2.894 2.437 2.895 5.484 216.775 3.199 219.065-1.067 1.07-6.094 2.89-11.273 4.11-6.551 1.68-9.598 3.05-9.902 5.03-.457 2.44 2.589 2.59 49.205 2.59 46.311 0 49.663-.15 49.206-2.59-.305-1.98-3.352-3.35-10.816-5.03-5.941-1.22-10.816-3.2-11.426-4.57-.609-1.22-.761-25.13-.304-53.01.609-39.61 1.218-51.035 2.742-51.949 1.98-1.219 16.452-2.133 67.029-4.114l24.679-1.066-.305 56.059-.457 56.22-11.12 2.28c-7.313 1.68-11.731 3.35-12.645 5.03-1.371 2.59 1.371 2.74 50.425 2.74 28.64 0 51.795-.61 51.795-1.37 0-2.59-4.265-4.72-13.863-6.55l-9.749-1.98-.457-24.07c-.153-13.41.152-23.92.914-23.92.761 0 1.828 2.13 2.437 4.57 3.047 15.54 19.957 37.02 35.495 45.4 14.929 7.77 26.05 10.05 49.206 9.9 24.222-.15 38.085-3.2 55.299-12.19 20.566-10.81 38.237-31.68 44.483-52.25 4.875-15.995 5.18-14.776 4.875 19.04l-.305 33.52-10.663 2.44c-7.465 1.67-10.817 3.19-11.121 4.87-.457 2.44 3.504 2.59 47.53 2.59 26.659 0 48.139-.61 48.139-1.37 0-2.44-3.656-4.27-12.187-6.25-12.797-2.89-12.644-2.74-11.578-22.09 2.437-39.6 7.16-61.999 18.281-85.307 7.617-16.3 14.472-24.526 23.612-28.639 17.367-7.617 28.793 5.636 33.667 39.303 1.829 13.558 1.981 89.123 0 92.163-.761 1.22-5.788 3.35-10.968 4.57-6.551 1.68-9.75 3.2-10.054 5.03-.457 2.44 3.199 2.59 49.205 2.59 45.854 0 49.663-.15 49.206-2.59-.305-1.83-3.809-3.2-12.492-5.18-6.551-1.37-12.644-3.35-13.558-4.27-2.285-2.28 1.066-45.24 5.179-64.739 9.75-47.378 29.402-74.494 49.206-67.944 10.511 3.504 17.519 19.195 20.718 46.921 2.438 20.566 1.524 83.182-1.219 85.922-1.066 1.06-6.245 3.04-11.425 4.26-6.398 1.68-9.597 3.2-9.902 5.03-.457 2.28 1.828 2.59 26.05 2.59h26.507l-.762 8.07c-.914 11.43 2.285 17.07 12.34 21.79 22.241 10.2 42.195 3.81 50.885-16.3 2.28-5.18 4.87-8.99 6.09-8.99 3.2 0 1.98 2.59-9.9 21.18-16.15 25.44-36.107 44.48-39.915 38.38-1.371-2.43-.914-2.59-24.222 5.79l-12.644 4.42 7.312 1.07c4.113.45 8.531 1.22 9.75 1.37 5.179 1.07-20.718 10.81-45.55 17.21-22.546 5.94-29.706 7.16-45.397 7.77l-18.738.61v-4.26c0-7.62-1.828-8.84-11.882-7.93-4.875.46-9.902.31-10.969-.3-2.437-1.52-.761-6.09 2.285-6.09 1.219 0 2.286-1.07 2.286-2.29 0-1.52-1.524-2.28-4.571-2.28-7.769 0-10.816 7.77-6.855 17.06.914 2.28.457 2.44-3.351 1.37-9.293-2.74-14.32-6.25-13.406-9.45.609-1.67.304-2.89-.762-2.89-3.047 0-3.504 4.57-.762 7.62 3.656 4.11 2.438 4.87-4.57 2.74-6.703-2.13-16.605-10.82-15.691-13.71.457-1.07 3.656-2.44 7.465-3.05 3.961-.76 7.769-2.44 9.445-4.42 3.504-4.41 3.351-12.34-.61-17.21-3.046-3.81-3.503-3.96-5.941-1.68-2.437 2.29-2.894 1.98-5.789-3.04-1.828-2.9-5.027-6.25-7.312-7.16-3.504-1.68-4.265-1.53-6.093 1.06-1.219 1.53-2.133 5.79-2.133 9.45 0 8.83-2.285 8.22-5.18-1.53-2.894-9.44-3.656-10.66-8.074-13.1-2.742-1.37-3.656-1.22-4.722.77-1.067 1.98-2.285 2.13-7.008.91-13.253-3.66-26.812 6.25-26.812 19.8 0 4.27.914 6.4 4.114 8.84 3.656 2.89 4.265 2.89 6.398.76 2.285-2.28 1.98-2.89-2.742-6.7-4.266-3.51-5.028-4.88-4.114-8.23 1.067-4.57 7.77-8.68 13.863-8.68 3.657 0 3.961.46 3.504 4.87-.457 4.12.305 5.34 3.961 7.01 3.808 1.83 4.113 2.44 1.828 3.66-3.504 1.98-3.047 6.4 1.523 11.73 2.743 3.2 3.504 5.63 2.895 7.77-2.133 6.85 8.531 15.08 16.757 13.1 2.285-.61 5.332-3.35 7.16-6.25 3.656-6.4 4.723-6.55 9.75-1.52 2.133 2.13 5.484 5.03 7.617 6.24 1.98 1.38 3.656 3.36 3.656 4.42 0 1.37 4.266 1.83 17.976 1.37l17.824-.45-15.234 2.13c-8.988 1.22-21.328 4.26-30.316 7.46-8.226 3.05-17.214 5.49-20.109 5.49-4.874 0-5.027-.31-4.265-4.42 1.219-6.25-1.523-10.36-8.226-12.34-8.836-2.44-10.969-1.98-10.969 2.13 0 3.35-.457 3.66-4.875 3.05-6.703-1.07-13.406 1.52-13.406 5.33 0 2.74 4.723 7.47 11.578 11.88 6.094 3.81-2.437 2.14-9.14-1.82-5.637-3.36-7.008-3.51-11.273-1.98-4.875 1.82-6.246 4.72-3.352 6.55 3.352 1.98 1.219 3.8-4.57 3.8-4.57 0-6.398-.76-7.769-3.35-1.524-2.74-1.219-3.65 1.523-5.94 3.809-3.04 4.113-4.42.914-4.42-4.113 0-8.378 5.79-8.378 11.28 0 6.4 4.113 11.58 10.816 13.86l5.179 1.83-11.425 3.5c-9.902 2.9-10.969 3.66-7.922 4.72 3.504 1.38 3.352 1.53-3.808 7.16-11.273 8.99-20.109 18.44-19.957 21.33.152 1.37-2.285 6.71-5.332 11.73-3.047 5.03-5.941 11.12-6.398 13.71l-.914 4.57 3.047-3.81c1.676-2.13 4.113-5.02 5.332-6.55 1.371-1.37 2.437-3.5 2.437-4.57 0-3.5 10.207-23 13.558-26.05 1.676-1.67 3.199-2.28 3.199-1.52-.304 4.11-4.265 15.69-6.703 19.35-2.437 3.65-2.589 5.02-1.066 10.05 2.285 7.62 2.133 9.29-.609 9.29-1.219 0-2.285.61-2.285 1.53 0 .76 2.742 1.52 6.093 1.52 3.961 0 6.399.92 7.313 2.44 1.675 3.05 4.874 1.52 4.874-2.44 0-1.67 1.676-3.35 4.571-4.42 4.722-1.52 6.245-4.72 2.437-4.72-1.371 0-2.59-2.28-3.199-6.09-1.066-5.94-6.398-12.19-10.664-12.19-3.351 0 2.285-14.62 8.074-21.48 5.027-5.79 13.558-11.58 14.929-10.05.457.45-.609 3.04-2.285 5.78-3.351 5.34-4.265 9.75-1.828 8.38.762-.45 3.656-4.87 6.246-9.59 4.57-8.08 5.18-8.53 6.246-5.34 2.59 7.01 8.226 5.79 18.738-4.11 4.113-3.81 5.636-4.57 4.722-2.44-3.808 10.06-1.523 13.71 5.485 8.53 4.57-3.35 7.464-4.11 7.464-1.82 0 .76 1.067 1.82 2.438 2.28 3.199 1.22 7.617-2.59 11.425-9.75 1.523-2.89 2.742-4.26 2.742-3.04 0 1.21-.914 3.96-2.133 6.09-2.742 4.72-2.894 10.66-.304 10.81.914.16 3.961 0 6.398 0l4.57-.3-6.55 5.79c-7.008 6.25-7.77 8.83-3.657 12.03 2.438 1.98 2.286 2.44-1.675 5.95-6.856 6.09-14.015 4.41-9.902-2.14 1.523-2.59 1.523-3.5 0-5.02-1.676-1.68-2.438-1.38-4.266.91-2.742 3.81-1.523 8.23 3.352 12.8 5.636 5.02 17.671 4.72 23.003-.61 3.351-3.51 4.418-3.66 7.312-2.14 5.484 2.9 6.855.77 6.855-10.96v-10.82l3.504 5.18c4.113 6.09 7.465 7.16 12.644 3.65 4.723-3.04 11.274-16.45 11.274-23.3 0-6.55-4.571-10.97-11.426-10.97-4.57 0-5.332-.46-5.332-3.51 0-1.98.914-4.41 1.981-5.48 1.523-1.68 1.218-1.68-1.524-.3-1.828.91-3.808 2.43-4.265 3.19-1.371 2.14-3.809 1.83-3.809-.45 0-2.9-4.57-6.71-9.445-7.92-3.199-.77-5.179 0-10.207 4.57-6.245 5.63-9.292 5.94-9.292.91 0-3.5 14.472-10.21 28.487-13.1 11.578-2.44 34.124-5.33 40.066-5.33l3.808.15-4.113 2.13c-7.769 4.27-7.16 17.83.914 19.96 5.027 1.22 10.511.15 11.273-2.13.305-1.22-1.066-1.83-4.113-1.83-2.59 0-4.723-.76-4.723-1.53 0-.91 2.438-1.52 5.332-1.52 6.551 0 12.949-5.64 12.949-11.42v-3.81h15.996c22.851 0 47.377-5.79 79.673-18.44 6.094-2.43 11.426-4.41 11.883-4.41.457 0-1.981 2.59-5.484 5.79-3.352 3.35-6.094 7.31-6.094 8.98 0 3.96 6.551 10.06 10.207 9.3 4.113-.77 3.351-4.88-1.067-5.49-5.332-.76-6.703-2.44-5.484-7.16 1.523-5.63 8.988-8.38 23.613-8.38 10.816 0 12.187-.3 13.101-3.04 1.066-3.66-1.066-7.01-5.484-8.38-4.418-1.37-3.656-2.74 4.418-7.62 3.96-2.44 10.511-7.92 14.469-12.19l7.32-7.61-.92 6.85c-1.07 8.23 1.22 13.26 7.77 17.06 5.18 3.05 8.99 2.44 10.36-1.37 1.52-3.65-.15-4.26-5.48-2.28-5.95 2.13-8.38.45-9.75-6.55-2.14-11.58 3.96-21.03 21.32-33.52 14.32-10.2 18.13-14.77 17.52-20.87l-.61-5.03 21.33-.15c19.5-.15 22.55-.61 35.8-4.87 21.02-7.01 40.22-16.91 40.83-21.33.3-1.83.15-3.35-.16-3.35-.45 0-8.22 2.44-17.21 5.48-22.24 7.47-41.13 8.69-54.69 3.51-21.78-8.23-37.32-34.13-37.32-62.006v-8.683l43.11-.152c44.63-.305 60.48-1.676 65.2-6.094 3.66-3.351 3.96-17.367.61-30.011-6.55-25.288-23.61-44.94-46.16-53.166-12.03-4.418-38.54-4.723-50.58-.61-29.09 9.902-51.791 32.296-62.607 62.003l-3.504 9.597-1.828-14.472c-3.961-30.773-12.644-47.987-28.792-56.671-4.875-2.589-8.684-3.351-18.433-3.351-11.121 0-13.406.609-23.613 5.637-20.718 10.206-38.694 32.753-48.901 61.24l-5.027 13.863-1.066-15.234c-2.286-35.495-13.559-57.28-33.058-63.983-21.023-7.16-47.682 4.266-65.658 27.878-8.227 11.121-21.48 36.562-24.527 47.53-3.656 13.102-4.723 10.359-3.656-9.14 2.285-40.522 3.199-64.897 2.59-66.572-.305-1.067-2.133-1.676-3.961-1.219-1.676.305-19.5 2.894-39.456 5.484-34.429 4.723-36.257 5.18-35.8 8.074.457 2.742 1.828 3.352 10.664 3.961 5.484.457 10.664 1.219 11.121 1.828.609.609 1.371 10.207 1.675 21.328l.762 20.261-3.656-9.293c-9.902-25.745-28.031-42.35-53.319-48.749-14.625-3.808-46.007-3.808-61.24 0-32.449 7.922-56.518 29.554-68.401 61.393l-3.961 10.359.762-16.757c.457-9.293 1.523-36.714 2.437-60.936.914-24.374 2.286-44.94 3.047-46.006.914-.914 4.418-2.285 7.922-2.742 8.074-1.372 11.73-3.352 11.73-6.094 0-1.676-1.98-2.285-7.769-2.285-5.637 0-7.617-.457-7.008-1.981.457-.914 8.683-20.718 18.433-43.873 9.598-23.156 20.109-48.749 23.156-56.823 3.047-8.074 6.093-14.625 6.55-14.625.61 0 3.961 9.141 7.617 20.109 6.703 20.718 28.031 78.76 33.667 91.861l3.047 7.16 23.613-.457c21.327-.609 23.765-.914 26.659-3.809 3.504-3.503 14.32-27.878 29.097-66.115l9.75-25.136.914 16.757c.609 9.141 1.828 20.109 2.894 24.375 7.16 28.792 28.335 49.662 58.651 57.889 14.625 3.808 47.682 4.722 63.221 1.675 19.042-3.808 53.928-18.28 60.783-25.136 2.59-2.589 2.895-2.437 9.445 3.961 7.617 7.617 23.461 15.996 37.933 19.804 7.617 2.133 15.843 2.743 35.8 2.743l25.897-.153 16.758-5.636c23.456-8.074 44.026-19.043 44.636-23.765.61-4.266.3-4.266-19.65 2.742-35.65 12.644-62.614 9.445-81.352-9.75-13.101-13.406-20.261-31.687-21.023-53.776l-.304-11.273 34.276.152c36.104.305 74.803-1.828 81.353-4.417l3.96-1.524v20.261c0 22.699 1.67 35.495 6.24 47.53 7.01 18.89 18.89 30.011 38.54 36.257 9.45 2.895 14.02 3.352 35.2 3.199 23.3 0 24.98-.152 38.08-4.722 20.87-7.313 28.18-10.816 28.18-14.016 0-4.265-1.06-4.417-11.88-1.371-14.17 3.961-35.49 4.418-44.79.762-23-8.836-29.09-36.561-26.05-118.825.76-24.069 1.83-44.026 2.29-44.483.3-.457 17.36-1.98 37.78-3.656 31.84-2.437 37.32-3.199 39-5.484 1.06-1.524 1.67-3.199 1.37-3.809-.31-.609-17.52-1.523-38.24-1.98-20.72-.609-37.93-1.371-38.39-1.828-.76-.762.61-18.89 5.03-65.201.15-2.133 4.11-4.418 13.86-8.531 20.26-8.379 27.12-12.492 27.73-16.758.45-3.047.15-3.504-2.29-2.59-19.35 7.77-31.23 10.512-46.31 11.273-15.08.61-16.76.458-25.44-3.503-21.33-9.598-35.34-33.82-35.34-60.936v-7.922l45.39-.914c62.92-1.219 65.82-2.133 65.82-18.433 0-27.878-17.83-56.823-41.59-68.096-13.87-6.398-31.54-8.531-47.08-5.636-6.55 1.219-11.88 1.98-11.88 1.676 0-.457 5.79-8.074 12.65-16.91 7-8.988 20.87-27.117 30.77-40.522 19.19-26.051 25.9-33.21 37.02-40.37 14.01-8.988 27.57-8.836 36.86.304 5.79 5.637 7.62 9.902 7.62 17.367 0 9.75-8.38 18.738-17.37 18.738-5.02 0-5.18 2.437-.3 3.656 5.63 1.371 10.97-1.371 15.23-7.769 5.49-8.684 7.47-16.453 6.7-28.031-.3-5.789 0-10.511.61-10.511.46 0 3.05 2.894 5.34 6.398 2.43 3.656 5.02 6.246 5.63 6.094 1.83-.762 3.96 2.742 3.96 6.55 0 1.676 1.68 4.57 3.66 6.551 3.5 3.199 3.81 3.199 5.18.914 1.22-2.285 1.83-1.981 4.11 2.437 2.29 4.418 2.44 7.465 1.53 21.023-.61 10.968-.46 15.539.61 14.929 2.74-1.828 4.87-12.949 3.8-20.413-3.04-20.718-8.38-30.163-23.46-40.37l-6.85-4.723 6.4-1.371c4.11-.761 7.61-2.742 9.59-5.332 3.05-3.808 3.05-4.113.46-5.027-1.68-.609-3.35-.152-4.42 1.067-1.37 1.675-1.98 1.675-3.96-.305-3.35-3.352-7.31-1.067-7.31 4.113 0 2.437-.91 4.57-1.83 4.723-1.06.152-12.19.304-24.83.457h-22.85l-8.84 5.027c-7.31 4.113-8.83 4.57-8.07 2.285.46-1.524 2.28-11.273 4.11-21.785 4.12-24.374 4.42-50.576.76-63.221-10.2-34.428-33.66-53.318-59.56-47.986-10.05 2.132-20.11 9.14-23.92 16.757-5.48 10.664-1.98 27.878 6.71 33.362 3.96 2.438 5.48.914 2.43-2.437-7.92-9.141-9.59-22.394-3.81-31.077 7.77-11.731 30.93-16.605 44.64-9.446 27.27 14.32 39.61 65.049 26.35 108.161-4.72 15.234-14.92 35.648-26.96 53.776-12.03 17.976-54.38 71.6-56.67 71.6-1.52 0-2.44-4.875-3.81-20.566-1.37-15.691-7.92-46.768-12.95-62.002-21.02-62.612-63.98-99.021-127.201-108.009-27.725-3.961-47.072.457-83.025 18.738-37.17 19.042-49.053 22.851-73.123 23.613-14.167.609-21.784.152-29.401-1.676-28.64-6.703-44.026-23.46-44.331-48.139-.152-17.977 8.379-33.515 23.308-42.351 9.14-5.332 24.527-5.789 35.495-.762 16.605 7.617 28.64 24.375 28.64 40.218 0 7.465-.762 9.597-5.027 15.234-6.855 9.14-17.215 14.168-26.05 12.949-14.929-2.285-30.163-17.671-30.468-30.468-.152-5.941.609-7.769 4.722-11.73 3.961-3.961 6.399-5.027 13.102-5.637 14.472-1.218 19.651 4.875 8.683 10.359-8.074 4.114-9.902 7.77-6.855 13.711 2.894 5.636 8.531 7.312 13.71 3.961 9.293-6.094 11.73-17.672 5.332-24.527-6.093-6.55-20.566-8.836-28.792-4.57-20.566 10.511-16.605 40.675 6.703 51.186 22.546 10.207 49.51-9.75 49.51-36.561 0-14.32-10.511-28.793-26.659-36.867-11.273-5.484-28.945-5.179-40.065.61-10.207 5.332-18.891 14.015-24.222 24.222-3.657 7.007-4.266 9.749-4.266 21.784 0 16.758 3.504 24.832 15.539 35.8 15.081 13.863 33.057 19.957 58.346 19.957 22.698 0 33.971-2.895 55.604-14.777 20.565-11.121 32.296-15.844 38.846-15.844 6.246 0 6.094 4.113-.914 19.957-8.531 19.347-7.312 30.62 4.875 44.026 13.711 15.081 32.296 18.585 50.881 9.445 5.485-2.59 13.711-7.16 18.281-10.055 20.718-13.405 51.643-13.101 58.651.61 2.894 5.636 2.894 11.121 0 16.91-4.723 9.14-18.738 13.862-22.089 7.464-1.371-2.59-1.067-3.351 2.132-4.875 2.133-.914 4.266-3.046 4.875-4.57 1.219-3.961-3.199-10.054-8.074-11.273-6.093-1.523-8.835 1.066-9.293 8.836-.609 8.835 4.571 15.538 13.711 18.128 22.242 5.941 35.038-15.843 19.957-33.819-6.856-8.074-14.93-11.273-28.64-11.273-10.512 0-13.559.609-22.242 4.722l-10.054 4.723.761-10.969c.762-12.339-1.371-17.519-8.988-21.48-5.027-2.437-14.015-2.742-18.28-.609-3.656 1.98-7.465 9.293-7.465 14.168 0 4.57 7.16 11.273 16.453 15.386 7.769 3.504 8.074 6.55 1.371 11.121-21.632 14.777-43.874 8.074-51.339-15.387-1.066-3.503-1.675-10.359-1.218-16.757 1.98-28.64 23.765-45.854 58.346-45.702 28.64.152 54.994 11.883 81.044 36.105 31.687 29.553 50.123 70.228 55.303 122.785 2.89 29.097 2.89 28.792-7.93 40.066-10.66 10.816-19.342 24.679-24.369 38.541l-3.352 9.141-1.98-14.32c-3.199-24.07-8.074-37.476-17.519-48.139-12.188-14.016-32.144-16.148-54.233-6.094-13.406 6.246-29.859 23.917-39.456 42.655-4.266 8.379-8.988 19.042-10.512 23.613l-2.742 8.378-1.218-14.472c-2.438-33.362-10.969-52.709-26.66-61.24-9.597-5.18-18.128-6.399-28.944-4.266-26.203 5.332-48.901 29.249-63.526 66.42-2.894 7.465-5.636 14.929-6.246 16.453-2.133 7.16-2.437-1.067-.914-29.097.914-16.605 1.828-35.343 1.981-41.589l.457-11.425-4.571-.305c-2.437-.305-20.261 1.828-39.608 4.57-32.296 4.571-35.038 5.18-35.038 7.922s1.219 3.047 9.445 3.504c5.789.304 10.054 1.219 11.121 2.59 1.066 1.371 2.133 9.749 2.437 21.632l.61 19.499-2.742-7.617c-5.332-14.015-9.75-21.175-19.195-30.468-10.055-9.902-21.023-15.995-36.257-20.108-14.015-3.809-45.245-3.352-60.783.761-33.211 8.836-57.585 31.382-67.639 62.459-1.524 4.418-2.895 7.77-3.199 7.465-1.219-1.066 4.265-118.977 5.484-121.567.914-1.523 4.265-2.894 8.683-3.656 7.922-1.066 11.121-3.047 11.121-6.246 0-1.828-8.836-2.133-51.795-2.133-44.484 0-51.796.305-51.796 2.285 0 2.895 4.113 5.028 12.035 6.246 3.351.61 7.008 1.981 7.922 3.047 1.218 1.371 1.98 17.976 2.589 51.796l.762 49.662-43.264-1.066c-23.765-.609-44.788-1.676-46.616-2.438-3.352-1.218-3.504-1.98-3.504-19.956.152-31.839 2.59-75.865 4.418-77.998 1.066-1.219 4.875-2.59 8.836-3.199 9.597-1.371 11.12-2.133 11.12-5.484 0-2.59-1.371-2.895-15.995-2.895-13.863 0-16.301-.304-17.215-2.742-2.132-5.027-1.218-36.104 1.067-40.522 1.218-2.285 8.835-9.445 16.909-16.148 8.074-6.551 17.062-14.625 19.804-17.671 7.465-8.684 12.492-20.871 13.254-32.449.609-8.835.305-10.968-3.656-18.433-5.789-10.816-16.148-16.757-29.402-16.757-10.968 0-14.777 1.371-22.089 7.921-11.425 9.903-14.777 25.898-7.617 34.581 2.133 2.438 5.332 5.028 6.855 5.485 2.438.761 3.047 2.285 3.047 7.007 0 9.902-3.504 16.301-10.968 19.652-4.418 1.981-5.484 3.047-3.352 3.047 3.809 0 10.512-4.875 12.949-9.597 1.067-1.676 2.133-6.551 2.742-10.817l.914-7.616 8.379-.458c11.273-.609 17.367-2.894 22.851-8.226 5.484-5.636 7.16-13.101 4.113-19.042-4.722-9.141-11.73-12.34-21.327-9.445-7.16 2.132-12.645 8.378-14.93 16.909-3.046 11.273-3.046 11.273-5.484 6.246-6.246-12.644 9.14-27.878 28.031-28.03 6.702 0 8.835.761 13.253 4.57 10.054 8.836 12.035 25.898 4.57 39.608-5.636 10.359-16.3 19.804-36.409 31.992-8.988 5.484-18.281 11.577-20.718 13.558-6.398 5.027-10.511 13.863-11.273 24.069-.305 4.875-.61 8.988-.762 9.293 0 .305-3.047-1.676-6.855-4.418-9.598-7.007-12.187-14.929-12.187-38.694 0-17.214.304-19.042 5.027-29.706 2.59-6.246 8.379-15.844 12.492-21.328 31.534-40.674 41.131-62.154 41.131-91.251 0-22.546-6.55-39.913-21.175-55.604-11.273-12.035-26.659-16.757-41.588-12.644zm81.806 143.504c4.722 4.57 4.875 9.749.457 15.234-5.332 6.855-19.347 10.663-27.726 7.464-3.199-1.219-3.199-9.902-.152-15.995 5.332-10.207 20.413-13.863 27.421-6.703zm229.728 192.861c11.73 3.2 21.023 17.519 26.354 40.218 3.657 15.539 4.114 73.58.762 88.357-6.246 27.573-16.605 40.37-32.905 40.37-15.082 0-26.66-13.406-34.429-39.761-4.57-15.843-5.789-61.24-2.285-81.654 5.332-30.772 17.519-48.139 34.429-49.053 1.218-.152 4.875.609 8.074 1.523zm486.417 1.219c9.6 5.941 14.78 19.652 17.52 47.378 1.83 18.433.61 23.46-5.79 26.05-2.43.914-14.32 1.98-26.66 2.437l-22.54.914v-11.73c0-32.448 9.44-58.651 23.31-65.049 7.92-3.504 8.37-3.504 14.16 0zM789.4 433.508c5.485 3.809 10.207 12.949 13.102 25.288 3.351 13.406 5.179 101.459 2.285 104.962-1.067 1.219-3.656 2.59-5.941 3.199-12.34 2.895-15.234 4.114-16.148 6.094-.762 1.98 5.484 2.285 49.358 2.285 42.655 0 50.272-.305 50.272-2.133 0-2.437-1.067-2.894-14.473-5.636-13.71-2.742-13.406-2.285-12.187-22.699 2.133-37.78 8.226-65.506 19.043-87.747 9.902-20.262 24.374-30.773 35.647-25.898 9.293 3.961 14.168 12.187 18.585 31.077 2.743 11.883 4.723 81.35 2.59 94.603-1.218 7.922-1.523 8.379-6.55 9.597-14.93 3.809-16.758 4.571-16.758 6.551 0 1.98 7.008 2.285 48.749 2.285 26.964 0 48.746-.609 48.746-1.371 0-2.437-3.81-4.265-13.251-6.246-5.332-1.066-10.207-2.742-11.121-3.656-1.218-1.523.457-35.495 2.133-41.284.152-.762 1.523 2.285 3.047 6.855 7.007 21.785 24.222 37.78 47.982 44.483 6.56 1.981 17.83 3.352 32 3.961l21.93 1.067-12.64 5.179c-7.01 2.742-15.24 7.465-18.43 10.359-6.1 5.484-7.77 10.816-12.04 36.562l-1.83 11.121h-17.36c-15.09 0-17.52.304-19.96 2.894-2.74 3.047-2.89 2.894-11.883-1.523-10.207-5.028-26.659-8.988-37.78-8.988-12.34 0-30.163 4.417-43.112 10.663-14.777 7.16-32.296 22.699-41.132 36.562-3.351 5.027-6.246 9.14-6.703 9.14-.457 0-3.047-4.722-5.636-10.511-8.988-19.043-26.203-34.429-46.312-41.437-7.921-2.742-13.101-3.351-27.268-3.351-15.234-.152-19.195.457-29.707 4.113-16.757 5.789-28.487 13.254-41.741 26.659-6.245 6.399-10.816 10.207-10.206 8.531.609-1.675 3.199-8.988 5.789-16.3 3.96-11.578 5.179-13.406 9.292-14.929 10.664-3.961 11.73-4.57 11.73-6.855 0-1.981-5.331-2.285-40.522-2.285-37.628 0-40.37.152-39.913 2.589.305 1.981 2.895 3.199 8.988 4.418 16.301 3.199 16.605 3.352 16.605 7.922 0 19.499-31.991 160.261-36.409 160.261-1.523 0-1.219.609-23.765-76.931-10.511-36.105-20.566-70.686-22.546-76.932l-3.504-11.425-8.683-.457c-12.949-.61-30.011 1.98-33.21 5.331-1.676 1.676-7.313 18.586-14.168 42.351-18.128 63.068-36.866 119.282-39.151 116.997-.609-.61-2.59-7.008-4.266-14.168-5.788-24.679-26.05-138.172-26.05-145.637 0-4.417 1.524-5.331 12.797-7.312 6.703-1.219 9.445-2.437 9.75-4.418.457-2.437-2.133-2.589-36.105-2.589-33.819 0-36.714-.153-36.714-2.59 0-1.524-1.066-13.863-2.437-27.574-1.371-13.558-1.98-25.745-1.523-26.964.761-1.98 8.074-2.285 50.424-2.285 48.139 0 49.51-.152 48.139-2.894-1.066-1.828-4.113-3.199-8.683-3.961-15.082-2.285-14.32-.609-14.32-26.355 0-12.492.457-23.155.914-23.613.609-.609 2.59 3.352 4.418 8.836 6.246 18.586 19.956 33.972 37.78 42.503 24.984 11.73 67.791 10.968 95.517-1.676 24.831-11.425 40.979-29.706 50.424-57.279l4.266-12.492-.305 33.514-.305 33.363-6.855 1.828c-3.808 1.066-8.836 2.285-11.121 2.742-2.742.609-4.113 1.828-3.808 3.351.457 1.981 6.55 2.285 47.53 2.133 26.05 0 47.53-.457 47.987-.914 1.675-1.676-4.571-4.875-13.559-6.703-7.617-1.676-9.292-2.59-10.054-5.636-1.066-4.266 1.98-46.616 4.113-58.346.914-4.571 3.809-14.93 6.246-22.851 12.797-40.523 32.753-59.413 49.967-47.378zm-356.779 75.865l-.457 56.061-12.187 2.59c-11.273 2.437-12.796 2.437-19.804.152-5.332-1.676-15.539-2.59-34.124-2.894-14.625-.305-26.964-.914-27.421-1.524-1.066-.914-.305-99.325.762-102.981.457-1.524 2.894-3.047 5.636-3.504 4.418-.609 54.233-3.047 78.455-3.504l9.445-.304-.305 55.908zm-149.597-15.234c-1.523 1.524-2.894-.761-1.523-2.742.914-1.676 1.218-1.676 1.828 0 .304 1.066.152 2.285-.305 2.742zm84.853 83.635c3.961 1.371 8.836 4.417 10.816 6.703 3.961 4.874 26.812 46.158 26.812 48.748 0 .914-6.246 1.524-15.996 1.524-14.929 0-15.995.152-15.995 3.046 0 2.133 1.371 3.199 5.789 3.961 11.425 1.981 9.597-1.676 23.765 49.51 3.808 13.863 7.007 25.746 7.007 26.508 0 .609-3.961-2.59-8.836-7.16-10.511-9.75-21.632-16.301-54.689-33.058-38.39-19.347-50.272-29.706-53.776-46.768-4.875-23.308 10.207-44.788 37.323-53.319 8.836-2.742 29.249-2.59 37.78.305zM789.4 647.85c9.75 8.226 16.301 28.944 17.824 56.213.762 15.082.61 17.062-2.133 20.261-3.96 4.875-12.034 6.246-38.389 6.398h-21.937l.914-18.737c1.828-34.886 10.816-57.889 26.202-66.268 5.332-3.047 12.34-2.133 17.519 2.133zm169.25-.762c10.054 7.16 16.452 27.116 17.671 55.604.762 18.738.609 20.261-2.285 23.156-3.809 3.808-17.671 5.331-42.198 4.57l-16.757-.457.457-13.711c.761-26.202 4.57-43.264 12.796-57.127 8.683-14.32 20.566-19.043 30.316-12.035zm82.26 11.273c.76.762-2.89 37.476-3.81 38.39-.3.457-1.52-1.981-2.43-5.18-2.9-8.683-8.23-18.738-13.56-25.441-3.66-4.57-4.27-6.245-2.9-7.312 2.14-1.219 21.48-1.676 22.7-.457zm-189.66 95.517c.305 17.824 3.352 31.534 9.902 44.483 3.352 7.008 3.961 9.445 2.59 10.359-4.57 2.742-30.315 10.359-40.827 12.035-16.605 2.437-28.792 1.066-40.37-4.57-22.546-11.121-37.171-37.78-37.323-67.944v-9.14l35.343.457c19.499.152 43.112-.152 52.252-.914 9.293-.609 17.062-.914 17.367-.762.305.305.762 7.465 1.066 15.996zm-423.046 24.07c1.675 6.246 6.245 20.718 9.902 31.991 3.656 11.273 6.398 21.023 6.093 21.632-.457.762-8.378 1.219-17.519 1.219-15.234 0-16.757.305-16.3 2.59.305 1.828 3.351 3.503 9.14 5.027 4.875 1.219 9.445 3.047 10.512 4.113 1.218 1.219 1.828 15.539 1.98 51.034l.152 49.205-38.846-.609c-21.328-.305-41.894-.914-45.702-1.523l-6.855-.914-.457-15.996c-.61-22.699 2.285-79.064 4.265-81.502.914-1.066 5.637-2.742 10.512-3.656 6.703-1.371 9.14-2.437 9.749-4.722.457-1.676.153-3.047-.609-3.047-3.656 0-.609-2.895 5.637-5.332 10.511-3.961 28.639-16.605 35.495-24.984 7.16-8.531 14.777-23.612 16.148-32.448 1.371-7.769 2.437-6.246 6.703 7.922zm165.593 124.766c17.214 7.769 26.507 36.866 26.507 82.415 0 54.381-9.75 80.591-31.535 84.701-25.593 4.87-43.112-29.4-43.112-84.853 0-46.007 8.988-74.342 26.355-82.263 8.074-3.656 13.863-3.656 21.785 0zm486.573 2.894c4.11 3.961 6.7 8.684 8.83 15.843 3.81 12.188 7.01 38.695 5.49 46.312-1.52 8.226-6.7 9.749-33.06 10.206l-21.63.305-.46-11.121c-.46-13.253 3.2-36.257 7.47-45.854 8.98-20.413 22.39-26.812 33.36-15.691zm-89.729 132.382c4.875 10.82 15.839 22.85 25.589 27.73 3.36 1.83 6.25 3.5 6.25 3.96 0 3.35-5.03 18.58-6.7 20.41-3.2 3.05-7.01.92-7.01-3.96-.15-4.11-.15-4.11-2.29-1.37-3.04 3.96-2.89 4.42 1.68 9.9 4.42 5.33 3.81 7.16-3.35 10.21-6.704 2.89-15.845 2.74-23.462-.31-6.55-2.74-6.703-2.74-6.246-12.95.457-7.61-2.894-12.64-6.246-9.29-2.742 2.74-4.265 2.29-4.265-1.22 0-4.87 4.875-6.09 23.612-6.09 15.997 0 17.667-.31 17.217-2.59-.31-1.98-3.66-3.35-11.732-5.18-6.094-1.37-11.73-3.5-12.492-4.57-.762-1.22-1.066-4.87-.609-8.23.304-3.35 1.066-12.34 1.675-19.8.762-11.43 1.219-13.1 2.59-9.9.762 2.13 3.351 8.07 5.789 13.25zm-143.352 146.7c0 .77-1.828 1.53-4.113 1.38-3.808 0-3.961-.16-1.218-1.38 4.113-1.82 5.331-1.82 5.331 0zM1197.06 273.552c-.46.762.15 1.676 1.37 2.285 1.22.457 2.29.152 2.29-.609 0-1.981-2.75-3.352-3.66-1.676z" fill="#000"/><path d="M1202.85 351.245c-2.89 7.16-6.55 9.75-11.88 8.379-2.59-.61-4.57 0-6.86 2.285-2.89 2.894-2.89 3.199-.45 4.57 3.04 1.676 1.67 3.351-4.73 5.637-5.63 1.98-7.16 5.027-2.74 6.246 1.83.457 3.2 1.371 3.2 2.132 0 2.438-6.09 1.371-13.71-2.437-4.11-2.133-7.92-3.809-8.38-3.809-1.83 0-.46 4.571 1.83 5.942 2.13 1.218 2.28 1.828.61 3.808-1.68 2.133-1.68 2.438.45 2.438 1.53 0 2.14.761 1.53 1.675-1.68 2.742-8.69 0-14.93-5.941l-5.94-5.637.91 4.875c1.22 6.094.61 6.094-5.33 1.219-4.87-4.113-7.31-3.808-7.31.609 0 1.828 1.67 3.2 5.02 4.266 3.2.914 4.88 2.285 4.73 3.961-.31 3.199 1.37 3.199 7.16.152l4.57-2.285-2.44 3.656c-2.59 4.113-1.52 9.293 3.05 13.863 3.5 3.351 6.24 1.371 3.04-2.133-2.43-2.742-2.43-3.199.77-7.617 3.8-5.484 8.22-7.769 20.56-11.425 11.27-3.199 17.06-6.094 22.55-11.121 6.09-5.789 5.48-8.379-1.22-5.484-6.86 2.894-10.36 1.066-3.96-2.133 5.48-2.59 9.6-7.769 12.19-15.386 2.43-7.617.76-7.77-2.29-.305z" fill="#000"/><path d="M1174.97 354.901c-2.28 2.895-1.06 3.656 4.42 2.895 2.59-.305 4.57-1.524 4.57-2.743 0-2.742-6.7-2.742-8.99-.152zM262.458 374.248c0 3.809.914 8.531 2.285 10.664 2.133 3.656 2.133 3.351 1.219-3.809-1.524-11.425-3.504-15.234-3.504-6.855zM252.404 374.249c-1.219 3.96 1.219 8.226 7.16 12.339 4.418 3.199 4.723 3.199 3.656.457-.762-1.523-2.285-5.789-3.504-9.445-2.437-6.855-5.789-8.379-7.312-3.351zM1124.85 390.549c0 6.093.92 6.855 4.42 3.351 2.44-2.437 2.74-3.503 1.22-5.332-2.9-3.503-5.49-2.437-5.64 1.981zM1114.49 389.634c-.45.915-.15 2.438.76 3.352 1.22 1.219 1.68.762 1.68-1.676 0-3.656-.76-4.265-2.44-1.676zM935.799 1136.56c-1.371 1.52-1.371 3.04 0 6.09 1.98 4.11 5.027 5.64 3.351 1.67-.457-1.37.305-3.35 1.981-4.57 2.589-1.98 2.589-2.43.609-3.8-3.047-1.98-3.808-1.98-5.941.61zM675.755 1210.74c-4.418 1.53-5.636 3.81-4.57 8.08.914 3.96 8.531 7.92 12.34 6.4 4.113-1.53 2.132-13.26-2.59-15.09-1.067-.3-3.504-.15-5.18.61zM650.315 1246.7c-2.438 2.43-.762 6.7 3.656 8.83 5.484 2.9 8.988 2.13 8.988-2.13 0-4.88-9.445-9.9-12.644-6.7zM657.627 1291.33c-4.113 13.41-4.875 14.78-7.008 12.8-3.351-2.9-6.55-2.74-9.75.91-3.808 4.27-1.98 7.62 4.266 7.62 3.808 0 6.551-1.37 10.511-5.18l5.485-5.33.914 7.16c.609 3.96 1.371 8.99 1.828 11.27.761 3.51.304 4.11-3.504 4.57-3.352.31-4.266 1.22-4.266 4.27 0 4.26 5.028 5.48 6.856 1.52.609-1.22 2.132-4.42 3.351-7.16 2.285-4.57 2.285-5.33-1.219-13.71-3.503-8.84-5.179-22.09-2.132-17.21.761 1.21 1.523 4.41 1.523 7.16 0 5.18 2.742 8.83 7.617 10.35 3.351 1.07 4.113 4.73 1.219 5.79-1.067.31-1.524 1.07-.914 1.68 1.828 2.13 7.007-1.98 8.074-6.25.457-2.43 3.046-6.09 5.484-8.38 2.59-2.43 4.418-5.63 4.418-7.92 0-4.87-2.438-5.18-3.656-.61-.762 3.36-1.067 3.2-6.703-2.28-6.551-6.4-7.313-6.55-11.121-3.2-2.59 2.28-2.742 1.98-4.418-4.27-.914-3.5-1.828-7-1.98-7.61-.153-.61-2.285 5.63-4.875 14.01zM694.645 1291.79l3.352 3.5-3.809 5.18c-6.703 9.14-3.656 12.8 7.008 8.53 3.351-1.37 6.855-2.13 7.617-1.67.762.61 1.371.15 1.371-.61 0-2.44-5.637-1.98-10.816.76-5.027 2.59-7.617 1.83-5.18-1.52 6.703-8.99 7.008-9.6 5.484-13.71-1.066-2.59-2.742-3.96-4.874-3.96h-3.352l3.199 3.5zM720.086 1309c-2.133 2.29-3.808 4.57-3.808 5.34 0 .6-.457 2.43-.914 3.96-.61 1.52 1.066-.16 3.808-3.81 4.723-6.4 10.816-8.69 10.816-4.12 0 1.22.762 2.29 1.524 2.29 2.132 0 1.98-3.5-.305-5.79-2.894-2.89-7.16-2.13-11.121 2.13zM708.661 1325.46c-1.067 2.13-4.114 4.87-6.703 6.09-4.266 2.13-4.418 2.44-1.219 2.44 3.656 0 12.492-7.47 12.492-10.51 0-2.9-2.438-1.83-4.57 1.98zM680.478 1324.85c-.609.91-2.285 1.22-3.961.76-3.504-1.22-3.504-.46-.609 5.18 2.59 5.03 6.093 6.24 14.32 5.18 5.941-.76 5.941-.76 3.046-4.12-1.675-1.67-3.96-4.41-5.179-5.94-2.59-2.89-6.094-3.35-7.617-1.06z" fill="#000"/>
	</symbol>

	<symbol id="print-pdf" viewBox="0 0 142 142" fill="#fff">
		<path d="M106.5 106.5v17.75h-71V106.5h-8.875v17.75a8.877 8.877 0 008.875 8.875h71a8.878 8.878 0 006.276-2.599 8.878 8.878 0 002.599-6.276V106.5H106.5z"/><path d="M93.188 93.188l-6.275-6.275-11.475 11.475V62.125h-8.876v36.263L55.087 86.913l-6.275 6.275L71 115.374l22.188-22.188zM124.25 17.75V8.875H97.625V53.25h8.875V35.5h13.312v-8.875H106.5V17.75h17.75zm-48.813 35.5h-17.75V8.875h17.75A13.326 13.326 0 0188.75 22.188v17.75A13.326 13.326 0 0175.437 53.25zm-8.874-8.875h8.874a4.437 4.437 0 004.438-4.438v-17.75a4.437 4.437 0 00-4.438-4.437h-8.874v26.625zm-26.626-35.5H17.75V53.25h8.875V39.937h13.313a8.888 8.888 0 008.874-8.874V17.75a8.875 8.875 0 00-8.874-8.875zM26.626 31.063V17.75h13.313l.004 13.313H26.625z"/>
	</symbol>
</svg>